<svg xmlns="http://www.w3.org/2000/svg" width="900" height="1200" viewBox="0 0 900 1200">
  <defs>
    <linearGradient id="bgGradient2" x1="0%" y1="0%" x2="0%" y2="100%">
      <stop offset="0%" stop-color="#1e293b"/>
      <stop offset="100%" stop-color="#0f172a"/>
    </linearGradient>
    <linearGradient id="glassGradient2" x1="0%" y1="0%" x2="100%" y2="100%">
      <stop offset="0%" stop-color="#0ea5e9" stop-opacity="0.95"/>
      <stop offset="70%" stop-color="#1d4ed8" stop-opacity="0.85"/>
      <stop offset="100%" stop-color="#312e81" stop-opacity="0.8"/>
    </linearGradient>
    <linearGradient id="labelGradient" x1="0%" y1="0%" x2="100%" y2="0%">
      <stop offset="0%" stop-color="#f8fafc"/>
      <stop offset="100%" stop-color="#cbd5f5"/>
    </linearGradient>
    <filter id="shadow2" x="-20%" y="-20%" width="140%" height="160%">
      <feDropShadow dx="0" dy="28" stdDeviation="32" flood-color="#020617" flood-opacity="0.55"/>
    </filter>
  </defs>
  <rect width="900" height="1200" fill="url(#bgGradient2)"/>
  <g transform="translate(150 140)" filter="url(#shadow2)">
    <rect x="150" y="0" width="240" height="120" rx="26" fill="#020617"/>
    <rect x="70" y="110" width="420" height="560" rx="90" fill="#020617"/>
    <rect x="90" y="140" width="380" height="520" rx="74" fill="url(#glassGradient2)" stroke="#1e40af" stroke-width="6" stroke-opacity="0.5"/>
    <rect x="120" y="320" width="320" height="160" rx="26" fill="url(#labelGradient)" fill-opacity="0.88"/>
    <text x="280" y="390" text-anchor="middle" font-family="'El Messiri', 'Cairo', sans-serif" font-size="76" fill="#020617">DIOR</text>
    <text x="280" y="450" text-anchor="middle" font-family="'El Messiri', 'Cairo', sans-serif" font-size="58" fill="#0f172a" letter-spacing="8">SAUVAGE</text>
  </g>
  <g fill="#38bdf8" fill-opacity="0.25">
    <path d="M120 1030c120-180 260-180 380 0" stroke="#38bdf8" stroke-width="12" fill="none" stroke-dasharray="24 18"/>
    <circle cx="720" cy="260" r="110"/>
    <circle cx="760" cy="860" r="70"/>
  </g>
  <text x="450" y="1080" text-anchor="middle" font-family="'Cairo', sans-serif" font-size="40" fill="#bae6fd">برية لا حدود لها</text>
</svg>
