<svg xmlns="http://www.w3.org/2000/svg" width="900" height="1200" viewBox="0 0 900 1200">
  <defs>
    <linearGradient id="bgGradient4" x1="0%" y1="0%" x2="100%" y2="0%">
      <stop offset="0%" stop-color="#0f172a"/>
      <stop offset="45%" stop-color="#1e3a8a"/>
      <stop offset="100%" stop-color="#38bdf8"/>
    </linearGradient>
    <linearGradient id="glassGradient4" x1="0%" y1="0%" x2="0%" y2="100%">
      <stop offset="0%" stop-color="#f8fafc" stop-opacity="0.9"/>
      <stop offset="100%" stop-color="#cbd5f5" stop-opacity="0.85"/>
    </linearGradient>
    <filter id="shadow4" x="-20%" y="-20%" width="140%" height="150%">
      <feDropShadow dx="0" dy="26" stdDeviation="28" flood-color="#0f172a" flood-opacity="0.5"/>
    </filter>
  </defs>
  <rect width="900" height="1200" fill="url(#bgGradient4)"/>
  <g filter="url(#shadow4)" transform="translate(180 160)">
    <rect x="160" y="0" width="220" height="110" rx="22" fill="#020617"/>
    <rect x="80" y="90" width="380" height="560" rx="88" fill="#020617" fill-opacity="0.45"/>
    <rect x="100" y="120" width="340" height="520" rx="76" fill="url(#glassGradient4)"/>
    <path d="M120 300h300c16 0 28 12 28 28v110c0 16-12 28-28 28H120c-16 0-28-12-28-28V328c0-16 12-28 28-28z" fill="#0f172a" fill-opacity="0.75"/>
    <text x="270" y="380" text-anchor="middle" font-family="'El Messiri', 'Cairo', sans-serif" font-size="72" fill="#f8fafc" letter-spacing="8">DIOR</text>
    <text x="270" y="440" text-anchor="middle" font-family="'El Messiri', 'Cairo', sans-serif" font-size="54" fill="#bae6fd" letter-spacing="10">SAUVAGE</text>
    <text x="270" y="520" text-anchor="middle" font-family="'Cairo', sans-serif" font-size="32" fill="#0f172a">لمسة بحرية</text>
    <text x="270" y="560" text-anchor="middle" font-family="'Cairo', sans-serif" font-size="30" fill="#0f172a">وإحساس من الحرية</text>
  </g>
  <g fill="none" stroke="#e0f2fe" stroke-opacity="0.3" stroke-width="10">
    <path d="M120 1020c140-160 320-160 460 0" stroke-dasharray="18 24"/>
    <path d="M220 250c90-120 210-120 300 0" stroke-dasharray="14 16"/>
  </g>
  <g fill="#f8fafc" fill-opacity="0.25">
    <circle cx="760" cy="250" r="80"/>
    <circle cx="720" cy="930" r="120"/>
  </g>
  <text x="450" y="1100" text-anchor="middle" font-family="'Cairo', sans-serif" font-size="40" fill="#f0f9ff">Signature Blue Edition</text>
</svg>
